HIERARCHY
ROOT SpineBase
{
  OFFSET 0.000000 0.000000 0.000000
  CHANNELS 6 Xposition Yposition Zposition Zrotation Xrotation Yrotation
  JOINT SpineMid
  {
    OFFSET 0.000000 28.447061 0.000000
    CHANNELS 3 Zrotation Xrotation Yrotation
    JOINT SpineShoulder
    {
      OFFSET -0.507998 20.936316 -0.564778
      CHANNELS 3 Zrotation Xrotation Yrotation
      JOINT Neck
      {
        OFFSET -0.362579 6.859873 -0.375317
        CHANNELS 3 Zrotation Xrotation Yrotation
        JOINT Head
        {
          OFFSET -3.127200 12.026765 0.998627
          CHANNELS 3 Zrotation Xrotation Yrotation
          End Site
          {
            OFFSET 0 0 0
          }
        }
      }
      JOINT ShoulderLeft
      {
        OFFSET -11.737462 -5.536303 6.575728
        CHANNELS 3 Zrotation Xrotation Yrotation
        JOINT ElbowLeft
        {
          OFFSET -1.058212 -19.620792 2.787120
          CHANNELS 3 Zrotation Xrotation Yrotation
          JOINT WristLeft
          {
            OFFSET 0.362974 -20.067895 -1.265821
            CHANNELS 3 Zrotation Xrotation Yrotation
            JOINT HandLeft
            {
              OFFSET -0.590855 -13.812255 0.822612
              CHANNELS 3 Zrotation Xrotation Yrotation
              JOINT HandTipLeft
              {
                OFFSET 0.663392 -5.250716 -1.495041
                CHANNELS 3 Zrotation Xrotation Yrotation
                End Site
                {
                  OFFSET 0 0 0
                }
              }
              JOINT ThumbLeft
              {
                OFFSET 1.053001 0.712739 -4.853339
                CHANNELS 3 Zrotation Xrotation Yrotation
                End Site
                {
                  OFFSET 0 0 0
                }
              }
            }
          }
        }
      }
      JOINT ShoulderRight
      {
        OFFSET 8.585214 -3.867399 -12.355222
        CHANNELS 3 Zrotation Xrotation Yrotation
        JOINT ElbowRight
        {
          OFFSET 3.786763 -19.270273 -5.283094
          CHANNELS 3 Zrotation Xrotation Yrotation
          JOINT WristRight
          {
            OFFSET -2.950627 -19.855924 -4.178832
            CHANNELS 3 Zrotation Xrotation Yrotation
            JOINT HandRight
            {
              OFFSET -2.891148 -6.641922 0.725742
              CHANNELS 3 Zrotation Xrotation Yrotation
              JOINT HandTipRight
              {
                OFFSET -3.430943 -7.800570 -2.431647
                CHANNELS 3 Zrotation Xrotation Yrotation
                End Site
                {
                  OFFSET 0 0 0
                }
              }
              JOINT ThumbRight
              {
                OFFSET -2.795406 2.303020 5.486436
                CHANNELS 3 Zrotation Xrotation Yrotation
                End Site
                {
                  OFFSET 0 0 0
                }
              }
            }
          }
        }
      }
    }
  }
  JOINT HipLeft
  {
    OFFSET -4.773414 0.043862 0.944835
    CHANNELS 3 Zrotation Xrotation Yrotation
    JOINT KneeLeft
    {
      OFFSET 8.268323 -31.441378 6.751378
      CHANNELS 3 Zrotation Xrotation Yrotation
      JOINT AnkleLeft
      {
        OFFSET 7.109908 -30.372609 6.146485
        CHANNELS 3 Zrotation Xrotation Yrotation
        JOINT FootLeft
        {
          OFFSET -5.544226 -3.273399 -9.231651
          CHANNELS 3 Zrotation Xrotation Yrotation
          End Site
          {
            OFFSET 0 0 0
          }
        }
      }
    }
  }
  JOINT HipRight
  {
    OFFSET 4.135400 1.462533 -7.288304
    CHANNELS 3 Zrotation Xrotation Yrotation
    JOINT KneeRight
    {
      OFFSET 10.556645 -30.382340 4.695899
      CHANNELS 3 Zrotation Xrotation Yrotation
      JOINT AnkleRight
      {
        OFFSET 7.179753 -30.891888 5.790263
        CHANNELS 3 Zrotation Xrotation Yrotation
        JOINT FootRight
        {
          OFFSET -5.412012 -3.257909 -9.045714
          CHANNELS 3 Zrotation Xrotation Yrotation
          End Site
          {
            OFFSET 0 0 0
          }
        }
      }
    }
  }
}
MOTION
Frames: 9
Frame Time: 0.033333
27.910583 71.528488 353.227295 4.056147 3.851741 39.731878 -1.189675 0.132144 -39.717230 -1.127159 -0.886682 0.051042 -4.816918 -3.172349 -0.397317 0.000000 0.000000 0.000000 -8.937670 -13.573644 -1.586895 8.771701 14.631230 -0.829568 2.408550 7.304920 -0.346453 -10.000899 -21.236715 -1.606377 0.000000 0.000000 0.000000 0.000000 0.000000 0.000000 -167.954055 67.906486 -173.470308 -61.220571 78.567938 -109.338971 -12.302958 -40.975445 -100.068132 0.386699 -0.000765 46.002987 0.000000 0.000000 0.000000 0.000000 0.000000 0.000000 -13.732871 3.996365 -42.108916 15.004814 0.901328 2.968771 3.759744 -15.012853 1.921986 0.000000 0.000000 0.000000 -8.073471 -0.999621 -40.875601 2.811643 4.885556 1.751201 -2.599031 -2.963660 2.629825 0.000000 0.000000 0.000000
27.793475 71.478495 353.319278 3.971571 3.679583 40.088854 -1.091998 0.248006 -40.071107 -1.231897 -0.894197 0.037971 -4.422703 -3.845914 -0.588596 0.000000 0.000000 0.000000 -8.746710 -13.542335 -1.565902 9.226341 15.502882 -0.961204 1.836537 5.754321 -0.251142 -8.314319 -18.211789 -1.123866 0.000000 0.000000 0.000000 0.000000 0.000000 0.000000 -167.372457 67.267694 -173.890251 -51.601092 75.441754 -112.699193 -28.209417 -50.340721 -123.657883 -18.570696 10.284106 65.955437 0.000000 0.000000 0.000000 0.000000 0.000000 0.000000 -13.080793 4.027207 -42.309325 14.562890 0.529007 2.843937 13.027107 -27.805229 2.849427 0.000000 0.000000 0.000000 -7.455817 -0.839891 -41.048076 2.500987 4.189478 1.523775 -1.501866 -4.806079 3.643334 0.000000 0.000000 0.000000
27.733536 71.474237 353.342427 3.971382 3.633363 40.640227 -1.099531 0.324105 -40.624254 -1.247950 -0.881416 0.035162 -4.262795 -4.350706 -0.728454 0.000000 0.000000 0.000000 -8.678164 -13.552980 -1.562443 9.744924 16.656428 -1.120356 1.381743 4.116539 -0.163526 -7.046152 -13.318376 -0.450934 0.000000 0.000000 0.000000 0.000000 0.000000 0.000000 -171.008314 68.875273 -169.467144 -60.476075 76.918978 -106.600039 -29.671030 -49.216897 -123.657717 -21.888579 16.059807 70.514435 0.000000 0.000000 0.000000 0.000000 0.000000 0.000000 -13.090032 4.237109 -42.857335 14.790285 0.528673 2.881502 19.170344 -35.473696 4.304187 0.000000 0.000000 0.000000 -6.780091 -0.389628 -41.300204 2.288500 2.166939 0.978420 3.004765 -10.558828 4.803539 0.000000 0.000000 0.000000
27.695393 71.457071 353.367458 3.987462 3.589849 41.066606 -1.108193 0.352844 -41.050848 -1.283535 -0.893992 0.030652 -3.968002 -4.653218 -0.825098 0.000000 0.000000 0.000000 -8.632787 -13.506581 -1.549756 10.275925 17.781305 -1.292951 0.898681 2.944856 -0.122574 -6.355218 -6.054950 0.553946 0.000000 0.000000 0.000000 0.000000 0.000000 0.000000 -173.353558 70.606239 -166.861826 -95.110839 81.311012 -83.915964 -11.358940 -44.338386 -100.279753 -16.092221 16.950009 66.453735 0.000000 0.000000 0.000000 0.000000 0.000000 0.000000 -13.029547 4.544336 -43.240739 14.987936 0.325379 2.893606 21.254834 -37.894962 4.654559 0.000000 0.000000 0.000000 -6.536779 -0.240634 -41.629918 2.123722 1.547946 0.798399 5.283580 -13.522310 5.606218 0.000000 0.000000 0.000000
27.682841 71.422584 353.351302 4.025698 3.587301 41.648242 -1.162278 0.350127 -41.633749 -1.289327 -0.920337 0.028380 -3.702988 -4.742822 -0.869250 0.000000 0.000000 0.000000 -8.626954 -13.430495 -1.534403 10.834024 18.816706 -1.482770 0.369321 1.439629 -0.062567 -5.774740 -3.744497 0.742182 0.000000 0.000000 0.000000 0.000000 0.000000 0.000000 -174.655767 72.026935 -165.599428 -119.302002 81.409263 -64.179351 -5.605727 -37.390599 -88.660544 -2.447608 12.444257 51.993793 0.000000 0.000000 0.000000 0.000000 0.000000 0.000000 -13.240739 5.021353 -43.837197 15.501850 0.259238 2.981766 16.069966 -32.118945 2.587484 0.000000 0.000000 0.000000 -6.516161 -0.168742 -42.193331 2.027844 1.274436 0.721190 6.565476 -15.012087 5.903181 0.000000 0.000000 0.000000
27.686913 71.354254 353.326596 4.050707 3.560548 41.922025 -1.193461 0.336767 -41.907304 -1.333642 -0.981502 0.021442 -3.434348 -4.566500 -0.844743 0.000000 0.000000 0.000000 -8.589538 -13.309480 -1.508122 11.342580 19.631662 -1.661476 -0.239204 -0.286155 0.001490 -5.510446 1.068942 1.293058 0.000000 0.000000 0.000000 0.000000 0.000000 0.000000 -169.042803 72.878822 -172.470017 -168.094818 77.649805 -34.619712 10.577929 -21.561279 -60.293910 12.013954 2.140775 32.958666 0.000000 0.000000 0.000000 0.000000 0.000000 0.000000 -13.744145 5.585043 -44.198465 16.389881 0.386017 3.159588 13.070278 -28.653737 0.649595 0.000000 0.000000 0.000000 -6.590179 -0.189782 -42.502582 1.976714 1.421202 0.756502 6.614533 -14.951399 5.560745 0.000000 0.000000 0.000000
27.636725 71.209167 353.388327 3.971155 3.389698 41.789491 -1.136482 0.327456 -41.769310 -1.377182 -1.046352 0.011546 -3.237640 -4.119727 -0.754377 0.000000 0.000000 0.000000 -8.503534 -13.112385 -1.463746 11.792774 20.185612 -1.821639 -0.706901 -1.404084 0.037628 -4.853732 6.260274 1.772461 0.000000 0.000000 0.000000 0.000000 0.000000 0.000000 -170.216831 74.756014 -171.311654 178.660782 73.080256 -31.172998 12.078549 -8.485950 -44.460711 21.980484 -10.008415 18.814331 0.000000 0.000000 0.000000 0.000000 0.000000 0.000000 -14.152513 6.205244 -44.139536 17.397216 0.513305 3.364456 5.885299 -18.587206 -1.458759 0.000000 0.000000 0.000000 -6.297251 -0.259662 -42.337110 1.693342 1.627917 0.761219 5.524741 -13.233568 4.706170 0.000000 0.000000 0.000000
27.559159 71.011041 353.521069 3.841192 3.133755 41.129099 -1.032814 0.334915 -41.101774 -1.421374 -1.089029 0.000839 -3.179771 -3.512572 -0.614977 0.000000 0.000000 0.000000 -8.385371 -12.905548 -1.415486 11.817527 20.105296 -1.828286 -0.601179 -1.666557 0.083002 -4.812088 6.849402 1.742609 0.000000 0.000000 0.000000 0.000000 0.000000 0.000000 -167.466911 76.039936 -174.604092 168.855390 68.530012 -33.759784 11.419037 -4.516526 -36.398039 24.663466 -16.088408 8.253104 0.000000 0.000000 0.000000 0.000000 0.000000 0.000000 -13.327814 5.271448 -43.390476 16.155440 0.908425 3.189838 -0.779077 -8.266300 -0.568402 0.000000 0.000000 0.000000 -6.081674 -0.479348 -41.723041 1.541792 2.585158 0.976383 3.356838 -10.447377 3.426677 0.000000 0.000000 0.000000
27.478712 70.806806 353.655020 3.705183 2.882800 40.665370 -0.923716 0.369723 -40.632223 -1.460851 -1.110430 -0.008770 -3.002613 -3.038075 -0.507676 0.000000 0.000000 0.000000 -8.257062 -12.742736 -1.375501 11.347149 19.717620 -1.665197 0.133863 -1.392567 0.137176 -6.477467 5.933963 1.942301 0.000000 0.000000 0.000000 0.000000 0.000000 0.000000 -154.299691 78.707870 170.366563 163.403681 62.853217 -42.841313 4.957747 2.164179 -19.427686 31.086774 -20.445955 -7.882162 0.000000 0.000000 0.000000 0.000000 0.000000 0.000000 -13.472218 5.219010 -43.020781 16.515855 1.410091 3.306828 -3.755620 -4.085223 0.041509 0.000000 0.000000 0.000000 -6.096255 -0.792709 -41.406081 1.524097 4.086469 1.358790 0.509501 -6.877971 2.318514 0.000000 0.000000 0.000000
